HIERARCHY
ROOT Hips
{
	OFFSET 0.000000 0.000000 0.000000
	CHANNELS 6 Xposition Yposition Zposition Zrotation Yrotation Xrotation 
	JOINT LowerBack
	{
		OFFSET 0.000000 0.000000 0.000000
		CHANNELS 3 Zrotation Yrotation Xrotation
		JOINT Spine
		{
			OFFSET 0.028270 2.035590 -0.193380
			CHANNELS 3 Zrotation Yrotation Xrotation
			JOINT Spine1
			{
				OFFSET 0.056720 2.048850 -0.042750
				CHANNELS 3 Zrotation Yrotation Xrotation
				JOINT Neck
				{
					OFFSET 0.000000 0.000000 0.000000
					CHANNELS 3 Zrotation Yrotation Xrotation
					JOINT Neck1
					{
						OFFSET -0.054170 1.746240 0.172020
						CHANNELS 3 Zrotation Yrotation Xrotation
						JOINT Head
						{
							OFFSET 0.104070 1.761360 -0.123970
							CHANNELS 3 Zrotation Yrotation Xrotation
							End Site
							{
								OFFSET 0.000000 0.000000 0.000000
							}
						}
					}
				}
				JOINT LeftShoulder
				{
					OFFSET 0.000000 0.000000 0.000000
					CHANNELS 3 Zrotation Yrotation Xrotation
					JOINT LeftArm
					{
						OFFSET 3.362410 1.200890 -0.311210
						CHANNELS 3 Zrotation Yrotation Xrotation
						JOINT LeftForeArm
						{
							OFFSET 4.983000 -0.000000 -0.000000
							CHANNELS 3 Zrotation Yrotation Xrotation
							JOINT LeftHand
							{
								OFFSET 3.483560 -0.000000 -0.000000
								CHANNELS 3 Zrotation Yrotation Xrotation
								JOINT LeftFingerBase
								{
									OFFSET 0.000000 0.000000 0.000000
									CHANNELS 3 Zrotation Yrotation Xrotation
									JOINT LeftHandIndex1
									{
										OFFSET 0.715260 -0.000000 -0.000000
										CHANNELS 3 Zrotation Yrotation Xrotation
										End Site
										{
											OFFSET 0.000000 0.000000 0.000000
										}
									}
								}
								JOINT LThumb
								{
									OFFSET 0.000000 0.000000 0.000000
									CHANNELS 3 Zrotation Yrotation Xrotation
									End Site
									{
										OFFSET 0.000000 0.000000 0.000000
									}
								}
							}
						}
					}
				}
				JOINT RightShoulder
				{
					OFFSET 0.000000 0.000000 0.000000
					CHANNELS 3 Zrotation Yrotation Xrotation
					JOINT RightArm
					{
						OFFSET -3.136600 1.374050 -0.404650
						CHANNELS 3 Zrotation Yrotation Xrotation
						JOINT RightForeArm
						{
							OFFSET -5.241900 -0.000000 -0.000000
							CHANNELS 3 Zrotation Yrotation Xrotation
							JOINT RightHand
							{
								OFFSET -3.444170 -0.000000 -0.000000
								CHANNELS 3 Zrotation Yrotation Xrotation
								JOINT RightFingerBase
								{
									OFFSET 0.000000 0.000000 0.000000
									CHANNELS 3 Zrotation Yrotation Xrotation
									JOINT RightHandIndex1
									{
										OFFSET -0.622530 -0.000000 -0.000000
										CHANNELS 3 Zrotation Yrotation Xrotation
										End Site
										{
											OFFSET 0.000000 0.000000 0.000000
										}
									}
								}
								JOINT RThumb
								{
									OFFSET 0.000000 0.000000 0.000000
									CHANNELS 3 Zrotation Yrotation Xrotation
									End Site
									{
										OFFSET 0.000000 0.000000 0.000000
									}
								}
							}
						}
					}
				}
			}
		}
	}
}
}
MOTION
Frames: 15
Frame Time: 0.008333
1.138322 16.632328 1.389311 38.755036 -88.979109 -34.845125 -3.980800 -3.461808 -3.828429 -1.375177 -3.342473 -2.897084 -6.400393 -3.351571 3.309426 13.200763 -19.450103 -13.508410 -2.280464 -0.103303 -1.531393 0.000000 0.000000 0.000000 -4.533228 24.336057 1.012716 -67.783971 11.593229 10.723202 -3.841068 -27.786527 -0.024622 -6.131060 10.679667 -0.569303 -0.090594 -0.074536 -0.000000 0.000000 0.000000 0.000000 0.000000 0.000000 0.000000 18.848852 -15.111467 -0.214753 69.993885 -0.941445 -4.656573 3.687168 30.233896 0.011749 4.280496 2.898093 0.109397 0.093812 -0.075331 -0.000000 0.000000 0.000000 0.000000 0.000000 0.000000 0.000000 
1.032879 16.576559 1.384601 35.094976 -88.606880 -31.165027 -4.111978 -3.604115 -4.025302 -1.413144 -3.484421 -2.937714 -6.512957 -3.494917 3.275281 13.422533 -19.312476 -13.598077 -2.421529 -0.114840 -1.557859 0.000000 0.000000 0.000000 -4.536057 23.814899 1.029688 -67.164368 10.465510 10.646592 -3.890044 -27.336740 -0.024968 -6.377454 10.850612 -0.601486 -0.093157 -0.068313 -0.000000 0.000000 0.000000 0.000000 0.000000 0.000000 0.000000 19.611048 -15.007479 -0.191121 70.054010 -0.907927 -5.846709 3.693447 29.116161 0.011571 3.761127 3.100931 0.102398 0.095660 -0.076400 -0.000000 0.000000 0.000000 0.000000 0.000000 0.000000 0.000000 
0.930182 16.514192 1.379512 31.915790 -88.218380 -28.028242 -4.240706 -3.735058 -4.181564 -1.448650 -3.613133 -2.971938 -6.604825 -3.625612 3.237565 13.582762 -19.103936 -13.672471 -2.550690 -0.125287 -1.581640 0.000000 0.000000 0.000000 -4.393516 23.249276 1.069116 -66.634001 9.263334 10.368198 -3.949034 -26.777739 -0.025308 -6.547680 11.061911 -0.629063 -0.096761 -0.060831 -0.000000 0.000000 0.000000 0.000000 0.000000 0.000000 0.000000 20.235000 -14.841003 -0.157110 70.137655 -0.771641 -7.079451 3.702468 27.808541 0.011354 3.348349 3.270545 0.095790 0.096293 -0.076897 -0.000000 0.000000 0.000000 0.000000 0.000000 0.000000 0.000000 
0.829865 16.446186 1.374271 28.857230 -87.815542 -25.066024 -4.359311 -3.851891 -4.304933 -1.479579 -3.726475 -3.001693 -6.672111 -3.741838 3.194832 13.673213 -18.825048 -13.727205 -2.662938 -0.134189 -1.601378 0.000000 0.000000 0.000000 -4.095313 22.643317 1.131099 -66.183031 7.996427 9.925876 -4.014348 -26.166562 -0.025619 -6.634420 11.308372 -0.650734 -0.101182 -0.052081 -0.000000 0.000000 0.000000 0.000000 0.000000 0.000000 0.000000 20.691639 -14.613693 -0.110774 70.249526 -0.541163 -8.374515 3.715747 26.335003 0.011072 3.093363 3.357987 0.090572 0.095508 -0.076765 -0.000000 0.000000 0.000000 0.000000 0.000000 0.000000 0.000000 
0.731419 16.373903 1.368964 25.765203 -87.396326 -22.114238 -4.461454 -3.953800 -4.404988 -1.504237 -3.824174 -3.028661 -6.711840 -3.843454 3.147156 13.692858 -18.496397 -13.762656 -2.752468 -0.140976 -1.616924 0.000000 0.000000 0.000000 -3.643459 22.004222 1.213210 -65.786766 6.678264 9.384388 -4.080770 -25.574927 -0.025887 -6.639250 11.577310 -0.665698 -0.106096 -0.042260 -0.000000 0.000000 0.000000 0.000000 0.000000 0.000000 0.000000 20.963631 -14.348282 -0.050857 70.378743 -0.209355 -9.713835 3.734895 24.725295 0.010725 3.028625 3.328812 0.087948 0.093356 -0.076047 -0.000000 0.000000 0.000000 0.000000 0.000000 0.000000 0.000000 
0.634169 16.299210 1.363608 22.606917 -86.958553 -19.128327 -4.540776 -4.041181 -4.495051 -1.521425 -3.907288 -3.055654 -6.723709 -3.931554 3.092266 13.644854 -18.136269 -13.778151 -2.815657 -0.145342 -1.627759 0.000000 0.000000 0.000000 -3.049722 21.330343 1.311916 -65.408166 5.342240 8.825083 -4.141751 -25.090959 -0.026112 -6.574306 11.849702 -0.673457 -0.111131 -0.031793 -0.000000 0.000000 0.000000 0.000000 0.000000 0.000000 0.000000 21.044823 -14.062456 0.023335 70.505496 0.214899 -11.079584 3.761027 23.036150 0.010328 3.172835 3.157305 0.087618 0.090037 -0.074860 -0.000000 0.000000 0.000000 0.000000 0.000000 0.000000 0.000000 
0.537110 16.224588 1.358089 19.456178 -86.501503 -16.167166 -4.594659 -4.115641 -4.589795 -1.530922 -3.977815 -3.085268 -6.709182 -4.007998 3.029547 13.538264 -17.769876 -13.776111 -2.849763 -0.147055 -1.634178 0.000000 0.000000 0.000000 -2.335337 20.624928 1.422225 -65.000327 4.023166 8.352681 -4.190614 -24.799868 -0.026295 -6.461369 12.100332 -0.674612 -0.115965 -0.021303 -0.000000 0.000000 0.000000 0.000000 0.000000 0.000000 0.000000 20.941545 -13.779657 0.111219 70.599492 0.724226 -12.420926 3.794528 21.333512 0.009919 3.515200 2.841112 0.087883 0.085962 -0.073359 -0.000000 0.000000 0.000000 0.000000 0.000000 0.000000 0.000000 
0.439357 16.152980 1.352247 16.428518 -86.028271 -13.334879 -4.623838 -4.179147 -4.703505 -1.533697 -4.037892 -3.121109 -6.672787 -4.074772 2.953972 13.382997 -17.404852 -13.754006 -2.856104 -0.146363 -1.635134 0.000000 0.000000 0.000000 -1.525920 19.874591 1.539847 -64.512458 2.780304 8.058567 -4.221029 -24.784400 -0.026430 -6.327799 12.301780 -0.670365 -0.120350 -0.011512 -0.000000 0.000000 0.000000 0.000000 0.000000 0.000000 0.000000 20.669428 -13.501253 0.212275 70.632307 1.279771 -13.710221 3.834534 19.711292 0.009540 4.034307 2.389353 0.085552 0.081520 -0.071726 -0.000000 0.000000 0.000000 0.000000 0.000000 0.000000 0.000000 
0.340095 16.087836 1.346023 13.605489 -85.547804 -10.704803 -4.628476 -4.233843 -4.845697 -1.530131 -4.089742 -3.164338 -6.618508 -4.133732 2.867192 13.193315 -17.066756 -13.717663 -2.834936 -0.143295 -1.631929 0.000000 0.000000 0.000000 -0.658896 19.091050 1.659206 -63.890661 1.637219 8.035573 -4.228638 -25.084395 -0.026479 -6.197483 12.422244 -0.661815 -0.124162 -0.003021 -0.000000 0.000000 0.000000 0.000000 0.000000 0.000000 0.000000 20.253315 -13.248268 0.323848 70.567829 1.873591 -14.867377 3.879590 18.241928 0.009249 4.678755 1.845524 0.077523 0.077216 -0.070174 -0.000000 0.000000 0.000000 0.000000 0.000000 0.000000 0.000000 
0.238720 16.032894 1.339156 11.140704 -85.071109 -8.429428 -4.621107 -4.282064 -5.022515 -1.523606 -4.134836 -3.216773 -6.552177 -4.186119 2.765684 12.982035 -16.758553 -13.665231 -2.790800 -0.138389 -1.623848 0.000000 0.000000 0.000000 0.235614 18.263136 1.776601 -63.087414 0.642752 8.323292 -4.209665 -25.721169 -0.026377 -6.080540 12.435183 -0.648962 -0.127305 0.003727 -0.000000 0.000000 0.000000 0.000000 0.000000 0.000000 0.000000 19.725070 -13.016462 0.443909 70.379318 2.466141 -15.841668 3.926194 17.009571 0.009093 5.395270 1.264096 0.062500 0.073380 -0.068926 -0.000000 0.000000 0.000000 0.000000 0.000000 0.000000 0.000000 
0.134768 15.992192 1.331413 9.147471 -84.611356 -6.622471 -4.616240 -4.326258 -5.235809 -1.517822 -4.174582 -3.279102 -6.479821 -4.233112 2.647612 12.762432 -16.479328 -13.596062 -2.729902 -0.132305 -1.610597 0.000000 0.000000 0.000000 1.123511 17.387834 1.889643 -62.058993 -0.169476 8.919514 -4.161769 -26.681182 -0.026065 -5.970733 12.327990 -0.630908 -0.129736 0.008621 -0.000000 0.000000 0.000000 0.000000 0.000000 0.000000 0.000000 19.124919 -12.797929 0.569371 70.040753 3.016636 -16.563276 3.969209 16.101524 0.009093 6.121983 0.703811 0.041284 0.070246 -0.068140 -0.000000 0.000000 0.000000 0.000000 0.000000 0.000000 0.000000 
0.028278 15.969325 1.323316 7.510661 -84.193751 -5.183674 -4.608419 -4.364005 -5.472129 -1.511164 -4.206768 -3.345050 -6.401306 -4.271853 2.528779 12.546508 -16.273076 -13.527627 -2.650486 -0.124632 -1.597006 0.000000 0.000000 0.000000 1.974554 16.533970 1.992215 -60.799698 -0.878732 9.818393 -4.086054 -27.846277 -0.025380 -5.826135 12.048665 -0.600749 -0.131499 0.012047 -0.000000 0.000000 0.000000 0.000000 0.000000 0.000000 0.000000 18.481595 -12.640659 0.693373 69.525596 3.591742 -16.966612 4.006896 15.474287 0.009348 6.790615 0.282380 0.021078 0.068045 -0.068197 -0.000000 0.000000 0.000000 0.000000 0.000000 0.000000 0.000000 
-0.080749 15.968149 1.314690 6.342763 -83.828148 -4.232561 -4.617324 -4.397251 -5.727807 -1.509247 -4.232110 -3.416995 -6.324682 -4.303209 2.396516 12.338566 -16.090494 -13.443827 -2.566028 -0.116911 -1.578644 0.000000 0.000000 0.000000 2.767140 15.658663 2.087518 -59.292996 -1.403470 10.909246 -3.981499 -29.197823 -0.024389 -5.615787 11.637868 -0.558289 -0.132655 0.014364 -0.000000 0.000000 0.000000 0.000000 0.000000 0.000000 0.000000 17.837560 -12.485065 0.814954 68.826714 4.087302 -17.057170 4.030472 15.241110 0.009818 7.351728 0.022315 0.006280 0.066637 -0.069080 -0.000000 0.000000 0.000000 0.000000 0.000000 0.000000 0.000000 
-0.191681 15.991592 1.306013 5.549987 -83.532756 -3.696961 -4.640343 -4.422913 -5.984642 -1.511604 -4.247793 -3.489438 -6.250185 -4.324013 2.259681 12.144266 -15.944652 -13.352582 -2.478774 -0.109226 -1.557796 0.000000 0.000000 0.000000 3.485849 14.807648 2.173500 -57.564833 -1.792887 12.124505 -3.851740 -30.626326 -0.023123 -5.292635 11.104699 -0.500825 -0.133463 0.016169 -0.000000 0.000000 0.000000 0.000000 0.000000 0.000000 0.000000 17.220233 -12.346660 0.929013 67.931465 4.530139 -16.816024 4.035312 15.370548 0.010518 7.742710 -0.010152 0.004591 0.066017 -0.070949 -0.000000 0.000000 0.000000 0.000000 0.000000 0.000000 0.000000 
-0.304005 16.041992 1.297739 5.066179 -83.320582 -3.529529 -4.674857 -4.437325 -6.224508 -1.518335 -4.250671 -3.559663 -6.179389 -4.331094 2.116161 11.961934 -15.816573 -13.248597 -2.394488 -0.102195 -1.533033 0.000000 0.000000 0.000000 4.128530 13.977601 2.250750 -55.659817 -2.029502 13.355466 -3.700958 -32.067043 -0.021718 -4.829149 10.493160 -0.430163 -0.134220 0.017873 -0.000000 0.000000 0.000000 0.000000 0.000000 0.000000 0.000000 16.647353 -12.205193 1.034570 66.842722 4.895330 -16.283145 4.015579 15.858445 0.011410 7.916843 0.198313 0.019209 0.066071 -0.073867 -0.000000 0.000000 0.000000 0.000000 0.000000 0.000000 0.000000 
